<svg id="visual" viewBox="0 0 2000 1500" width="2000" height="1500" xmlns="http://www.w3.org/2000/svg" xmlns:xlink="http://www.w3.org/1999/xlink" version="1.1"><rect x="0" y="0" width="2000" height="1500" fill="#010c17"></rect><path d="M481 0L481 0L481 375L481 375L481 750L481 750L481 1125L481 1125L481 1500L0 1500L0 1125L0 1125L0 750L0 750L0 375L0 375L0 0L0 0Z" fill="#45796e"></path><path d="M361 0L361 0L361 375L361 375L361 750L361 750L361 1125L361 1125L361 1500L0 1500L0 1125L0 1125L0 750L0 750L0 375L0 375L0 0L0 0Z" fill="#378271"></path><path d="M241 0L241 0L241 375L241 375L241 750L241 750L241 1125L241 1125L241 1500L0 1500L0 1125L0 1125L0 750L0 750L0 375L0 375L0 0L0 0Z" fill="#258b73"></path><path d="M121 0L121 0L121 375L121 375L121 750L121 750L121 1125L121 1125L121 1500L0 1500L0 1125L0 1125L0 750L0 750L0 375L0 375L0 0L0 0Z" fill="#009473"></path></svg>