<svg id="visual" viewBox="0 0 2000 2300" width="2000" height="2300" xmlns="http://www.w3.org/2000/svg" xmlns:xlink="http://www.w3.org/1999/xlink" version="1.1"><rect x="0" y="0" width="2000" height="2300" fill="#010c17"></rect><path d="M0 183L500 183L500 183L1000 183L1000 183L1500 183L1500 183L2000 183L2000 183L2000 0L2000 0L1500 0L1500 0L1000 0L1000 0L500 0L500 0L0 0Z" fill="#45796e"></path><path d="M0 137L500 137L500 137L1000 137L1000 137L1500 137L1500 137L2000 137L2000 137L2000 0L2000 0L1500 0L1500 0L1000 0L1000 0L500 0L500 0L0 0Z" fill="#378271"></path><path d="M0 91L500 91L500 91L1000 91L1000 91L1500 91L1500 91L2000 91L2000 91L2000 0L2000 0L1500 0L1500 0L1000 0L1000 0L500 0L500 0L0 0Z" fill="#258b73"></path><path d="M0 45L500 45L500 45L1000 45L1000 45L1500 45L1500 45L2000 45L2000 45L2000 0L2000 0L1500 0L1500 0L1000 0L1000 0L500 0L500 0L0 0Z" fill="#009473"></path></svg>