<svg xmlns="http://www.w3.org/2000/svg" version="1.1" xmlns:xlink="http://www.w3.org/1999/xlink" xmlns:svgjs="http://svgjs.com/svgjs" width="2000" height="3000" preserveAspectRatio="none" viewBox="0 0 2000 3000"><g mask="url(&quot;#SvgjsMask1094&quot;)" fill="none"><rect width="2000" height="3000" x="0" y="0" fill="rgba(57, 63, 69, 1)"></rect><path d="M0 2008.34L10 1987.72L20 1948.19L30 1986.81L40 1829.7L50 1477.64L60 1160.51L70 1156.34L80 1303.04L90 952.56L100 1007.34L110 957.09L120 1073.12L130 1431.55L140 1668.54L150 1601.77L160 1316.25L170 1148.4L180 1056.83L190 1054.08L200 776.2L210 812.89L220 1117.23L230 1236.25L240 1456.98L250 1329.82L260 1183.01L270 1273.76L280 1242.7L290 1572.21L300 1369.81L310 1406.08L320 1518.38L330 1428.55L340 1402.03L350 1143.86L360 1155.74L370 870.99L380 1088.76L390 1459.26L400 1350.36L410 1298.97L420 968.24L430 1159.94L440 925.81L450 761.74L460 884.99L470 996.27L480 1161.78L490 791.08L500 621.42L510 696.78L520 984.12L530 1054.26L540 865.87L550 905.93L560 583.38L570 222.38L580 62.42L590 322.12L600 215.14L610 144.58L620 347.64L630 710.8L640 858.53L650 1231.53L660 1492.05L670 1436.84L680 1709.82L690 1447.6L700 1552.46L710 1287.82L720 1581.43L730 1675.43L740 1345.99L750 1594.74L760 1760.01L770 1847.42L780 2060.3L790 2329.36L800 2457.59L810 2491.83L820 2393.92L830 2424.85L840 2291.12L850 2376.91L860 2627.6L870 2881.82L880 2839.28L890 2583.55L900 2498.56L910 2451.89L920 2456.97L930 2794.74L940 2723.81L950 2801.76L960 2870L970 2898.2L980 2653.2L990 2869.71L1000 2619.26L1010 2673.34L1020 2517.31L1030 2304.44L1040 2471.28L1050 2474.87L1060 2842.18L1070 2635.93L1080 2460.04L1090 2211.33L1100 2210.8L1110 2562.68L1120 2621.15L1130 2936.96L1140 2992.55L1150 2667.02L1160 2409.17L1170 2670.02L1180 2916.27L1190 2585.8L1200 2938.62L1210 2583.08L1220 2376.01L1230 2505.67L1240 2591.43L1250 2527.5L1260 2246.01L1270 2246.29L1280 2253.4L1290 2421.59L1300 2745.14L1310 2482.15L1320 2512.85L1330 2849.82L1340 2940.58L1350 2855.12L1360 2816.4L1370 2817.35L1380 2495.9L1390 2509.89L1400 2662.52L1410 2634.19L1420 2999.21L1430 2861.95L1440 2856.87L1450 2867.71L1460 2654.96L1470 2596.66L1480 2602.61L1490 2920.2L1500 2799.65L1510 2613.63L1520 2505.19L1530 2698.04L1540 2430.01L1550 2783.25L1560 2889.51L1570 2663.74L1580 2394.35L1590 2423.89L1600 2246.63L1610 2047.02L1620 2239.38L1630 2098.77L1640 1996.91L1650 1750.57L1660 1439.65L1670 1533.98L1680 1463.7L1690 1338.84L1700 1240.09L1710 924.79L1720 952.99L1730 1152.2L1740 958.63L1750 1017.18L1760 684.9L1770 742.2L1780 865.02L1790 1145.73L1800 1426.37L1810 1155.42L1820 890.35L1830 754.95L1840 716.05L1850 530.63L1860 830.86L1870 962.74L1880 702.54L1890 740.26L1900 563.85L1910 252.2L1920 303.17L1930 187.31L1940 494.74L1950 317.21L1960 630.57L1970 797.96L1980 526.12L1990 737.69L2000 776.75" stroke="rgba(15, 157, 88, 1)" stroke-width="2"></path><path d="M0 2008.34L10 1987.72L20 1948.19L30 1986.81L40 1829.7L50 1477.64L60 1160.51L70 1156.34L80 1303.04L90 952.56L100 1007.34L110 957.09L120 1073.12L130 1431.55L140 1668.54L150 1601.77L160 1316.25L170 1148.4L180 1056.83L190 1054.08L200 776.2L210 812.89L220 1117.23L230 1236.25L240 1456.98L250 1329.82L260 1183.01L270 1273.76L280 1242.7L290 1572.21L300 1369.81L310 1406.08L320 1518.38L330 1428.55L340 1402.03L350 1143.86L360 1155.74L370 870.99L380 1088.76L390 1459.26L400 1350.36L410 1298.97L420 968.24L430 1159.94L440 925.81L450 761.74L460 884.99L470 996.27L480 1161.78L490 791.08L500 621.42L510 696.78L520 984.12L530 1054.26L540 865.87L550 905.93L560 583.38L570 222.38L580 62.42L590 322.12L600 215.14L610 144.58L620 347.64L630 710.8L640 858.53L650 1231.53L660 1492.05L670 1436.84L680 1709.82L690 1447.6L700 1552.46L710 1287.82L720 1581.43L730 1675.43L740 1345.99L750 1594.74L760 1760.01L770 1847.42L780 2060.3L790 2329.36L800 2457.59L810 2491.83L820 2393.92L830 2424.85L840 2291.12L850 2376.91L860 2627.6L870 2881.82L880 2839.28L890 2583.55L900 2498.56L910 2451.89L920 2456.97L930 2794.74L940 2723.81L950 2801.76L960 2870L970 2898.2L980 2653.2L990 2869.71L1000 2619.26L1010 2673.34L1020 2517.31L1030 2304.44L1040 2471.28L1050 2474.87L1060 2842.18L1070 2635.93L1080 2460.04L1090 2211.33L1100 2210.8L1110 2562.68L1120 2621.15L1130 2936.96L1140 2992.55L1150 2667.02L1160 2409.17L1170 2670.02L1180 2916.27L1190 2585.8L1200 2938.62L1210 2583.08L1220 2376.01L1230 2505.67L1240 2591.43L1250 2527.5L1260 2246.01L1270 2246.29L1280 2253.4L1290 2421.59L1300 2745.14L1310 2482.15L1320 2512.85L1330 2849.82L1340 2940.58L1350 2855.12L1360 2816.4L1370 2817.35L1380 2495.9L1390 2509.89L1400 2662.52L1410 2634.19L1420 2999.21L1430 2861.95L1440 2856.87L1450 2867.71L1460 2654.96L1470 2596.66L1480 2602.61L1490 2920.2L1500 2799.65L1510 2613.63L1520 2505.19L1530 2698.04L1540 2430.01L1550 2783.25L1560 2889.51L1570 2663.74L1580 2394.35L1590 2423.89L1600 2246.63L1610 2047.02L1620 2239.38L1630 2098.77L1640 1996.91L1650 1750.57L1660 1439.65L1670 1533.98L1680 1463.7L1690 1338.84L1700 1240.09L1710 924.79L1720 952.99L1730 1152.2L1740 958.63L1750 1017.18L1760 684.9L1770 742.2L1780 865.02L1790 1145.73L1800 1426.37L1810 1155.42L1820 890.35L1830 754.95L1840 716.05L1850 530.63L1860 830.86L1870 962.74L1880 702.54L1890 740.26L1900 563.85L1910 252.2L1920 303.17L1930 187.31L1940 494.74L1950 317.21L1960 630.57L1970 797.96L1980 526.12L1990 737.69L2000 776.75L2000 3000L0 3000z" fill="url(#SvgjsLinearGradient1095)"></path></g><defs><mask id="SvgjsMask1094"><rect width="2000" height="3000" fill="#ffffff"></rect></mask><linearGradient x1="50%" y1="0%" x2="50%" y2="100%" id="SvgjsLinearGradient1095"><stop stop-opacity="0.65" stop-color="rgba(15, 157, 88, 1)" offset="0"></stop><stop stop-opacity="0" stop-color="#55efa4" offset="0.8"></stop></linearGradient></defs></svg>